# xmcd
#
# Track frame offsets: 
#        150
#        14119
#        28765
#        44204
#        61195
#        79995
#        97105
#        115467
#        131080
#        142945
#        158852
#
# Disc length: 2461 seconds
#
# Revision: 13
# Processed by: cddbd v1.5.2PL0 Copyright (c) Steve Scherf et al.
# Submitted via: ExactAudioCopy v0.99pb4
#
DISCID=a2099b0b
DTITLE=方皓玟 - Do You Know
DYEAR=2002
DGENRE=Pop
TTITLE0=爱要让你知
TTITLE1=Do You Know
TTITLE2=闭嘴
TTITLE3=极乐
TTITLE4=再一次
TTITLE5=Tonight
TTITLE6=幸福
TTITLE7=情人节
TTITLE8=Wanna Love
TTITLE9=恋之道
TTITLE10=蝴蝶
EXTD=
EXTT0=
EXTT1=
EXTT2=
EXTT3=
EXTT4=
EXTT5=
EXTT6=
EXTT7=
EXTT8=
EXTT9=
EXTT10=
PLAYORDER=
